<svg width="25" height="18" viewBox="0 0 25 18" fill="none" xmlns="http://www.w3.org/2000/svg">
<path d="M24.0406 1.49746V16.2383C24.0406 17.0748 23.4031 17.7124 22.5666 17.7124H21.0925V4.33433L12.248 10.6876L3.40349 4.33433V17.7124H1.9294C1.09286 17.7124 0.455322 17.0748 0.455322 16.2383V1.49746C0.455322 1.07882 0.613049 0.710301 0.877647 0.449389C1.01545 0.311508 1.17958 0.202743 1.36026 0.129559C1.54094 0.056375 1.73449 0.0202659 1.9294 0.0233788H2.42101L12.248 7.14835L22.0749 0.0233788H22.5666C22.9852 0.0233788 23.3537 0.181106 23.6183 0.449389C23.8829 0.710301 24.0406 1.07882 24.0406 1.49746Z" fill="#1F2626"/>
</svg>
